<?xml version="1.0" encoding="iso-8859-1"?>
<!-- Uploaded to: SVG Repo, www.svgrepo.com, Generator: SVG Repo Mixer Tools -->
<svg fill="#000000" height="800px" width="800px" version="1.1" id="Layer_1" xmlns="http://www.w3.org/2000/svg" xmlns:xlink="http://www.w3.org/1999/xlink" 
	 viewBox="0 0 490.71 490.71" xml:space="preserve">
<g>
	<g>
		<g>
			<path d="M490.455,22.109c-1-17.4-16.3-21.3-22.6-21.1c-85.7,2.9-152.8,74.6-149.9,160.3c0.4,12.5,10.1,21.5,22.6,21.1
				C426.255,179.609,495.455,107.809,490.455,22.109z M363.855,134.909c7.9-42.4,39.6-76.2,82.1-87.8
				C438.055,89.409,405.655,124.109,363.855,134.909z"/>
			<path d="M172.755,161.409c2.9-85.7-64.2-157.4-149.9-160.3c-6.3-0.3-21.6,3.6-22.6,21c-5,85.6,64.2,157.4,149.9,160.3
				C162.655,182.909,172.255,173.809,172.755,161.409z M44.655,47.008c42.5,11.6,74.2,45.4,82.1,87.8
				C85.055,124.109,52.655,89.409,44.655,47.008z"/>
			<path d="M370.655,226.508h-104.8v-130c0-11.4-9.4-20.8-20.8-20.8s-20.8,9.4-20.8,20.8v130h-103.9c-13,0-23,11.6-21,24.4
				l33.3,221.1c1,10.4,9.4,17.7,19.8,17.7h185.2c9.4,0,18.7-7.3,20.8-17.7l33.2-221.1
				C393.555,238.109,383.655,226.508,370.655,226.508z M319.955,449.208h-149.8l-27-181h203.9L319.955,449.208z"/>
		</g>
	</g>
</g>
</svg>